<?xml version="1.0" standalone="no"?>
<!DOCTYPE svg PUBLIC "-//W3C//DTD SVG 20010904//EN"
 "http://www.w3.org/TR/2001/REC-SVG-20010904/DTD/svg10.dtd">
<svg version="1.0" xmlns="http://www.w3.org/2000/svg"
 width="487.000000pt" height="485.000000pt" viewBox="0 0 487.000000 485.000000"
 preserveAspectRatio="xMidYMid meet">

<g transform="translate(0.000000,485.000000) scale(0.100000,-0.100000)"
fill="#000000" stroke="none">
<path d="M2096 4840 c-15 -5 -37 -17 -48 -27 -42 -37 -48 -72 -48 -272 0 -222
12 -200 -137 -251 -122 -42 -296 -118 -385 -170 -120 -69 -106 -74 -266 91
l-139 143 -61 4 c-49 3 -67 0 -94 -16 -18 -11 -132 -121 -254 -244 -237 -239
-243 -248 -223 -324 11 -37 52 -83 227 -248 39 -38 72 -77 72 -87 0 -10 -21
-63 -46 -116 -65 -139 -98 -224 -129 -333 -16 -57 -35 -102 -47 -112 -18 -16
-43 -18 -198 -18 -189 0 -228 -7 -272 -48 -48 -44 -49 -56 -46 -409 l3 -332
29 -30 c17 -17 46 -36 65 -41 20 -5 122 -10 227 -10 141 0 194 -3 201 -12 5
-7 28 -69 50 -138 35 -106 93 -251 149 -364 26 -54 20 -65 -122 -206 -74 -74
-142 -147 -150 -162 -8 -15 -14 -48 -14 -74 l0 -47 233 -234 c127 -129 244
-241 259 -249 38 -20 102 -17 146 5 20 10 60 45 88 77 92 106 186 194 207 194
11 0 58 -22 106 -49 111 -64 228 -118 371 -171 63 -24 122 -50 130 -57 12 -11
16 -53 20 -212 5 -197 5 -198 33 -234 17 -23 42 -41 65 -47 25 -8 146 -10 364
-8 l326 3 27 25 c49 44 55 75 55 259 0 106 4 179 11 195 11 23 62 56 89 56 28
0 256 97 386 165 95 48 150 72 164 68 11 -3 71 -61 132 -130 62 -68 125 -131
142 -140 35 -18 106 -19 138 -2 34 18 476 459 494 493 32 59 16 87 -147 251
-109 110 -149 156 -149 174 0 13 24 76 54 140 29 64 75 181 101 261 26 80 52
150 57 155 5 6 97 12 216 15 232 6 257 12 293 80 17 32 19 61 19 348 0 345 0
343 -64 399 -44 39 -85 45 -288 41 -130 -2 -160 0 -171 12 -8 8 -31 69 -52
134 -32 105 -57 168 -146 363 -34 74 -31 79 114 218 72 70 140 139 149 154 23
34 23 108 0 141 -9 14 -102 108 -207 209 -104 101 -199 193 -210 206 -65 71
-149 86 -220 39 -22 -15 -86 -80 -143 -145 -73 -85 -109 -119 -125 -119 -12 0
-87 33 -167 74 -80 40 -209 98 -288 127 -79 30 -152 62 -163 72 -17 16 -19 33
-19 205 0 211 -7 239 -71 277 -32 19 -54 20 -354 22 -176 1 -333 -2 -349 -7z
m426 -1008 c37 -20 109 -62 160 -93 247 -148 512 -304 698 -412 246 -142 267
-158 291 -211 18 -39 19 -78 19 -701 0 -428 -4 -673 -11 -698 -5 -20 -22 -48
-37 -62 -15 -14 -164 -106 -332 -204 -168 -98 -421 -247 -563 -331 -142 -83
-273 -154 -291 -157 -45 -7 -90 14 -309 145 -100 60 -270 161 -377 224 -547
322 -537 316 -562 355 l-23 38 -3 655 c-2 360 0 674 3 698 4 27 17 55 36 77
17 19 117 84 232 151 111 65 361 214 555 331 323 195 389 230 432 232 8 0 45
-16 82 -37z"/>
<path d="M2229 3298 c-101 -62 -281 -171 -398 -243 -149 -91 -217 -138 -227
-157 -12 -24 -14 -104 -12 -497 l3 -469 24 -26 c20 -22 692 -431 786 -479 28
-14 33 -13 80 10 81 41 731 431 764 459 l31 26 0 483 0 483 -34 29 c-18 17
-161 107 -317 200 -156 94 -329 198 -384 232 -55 33 -107 61 -115 61 -9 0 -99
-51 -201 -112z"/>
</g>
</svg>
