<?xml version="1.0" standalone="no"?>
<!DOCTYPE svg PUBLIC "-//W3C//DTD SVG 20010904//EN"
 "http://www.w3.org/TR/2001/REC-SVG-20010904/DTD/svg10.dtd">
<svg version="1.0" xmlns="http://www.w3.org/2000/svg"
 width="500.000000pt" height="500.000000pt" viewBox="0 0 500.000000 500.000000"
 preserveAspectRatio="xMidYMid meet">
<metadata>
Created by potrace 1.14, written by Peter Selinger 2001-2017
</metadata>
<g transform="translate(0.000000,500.000000) scale(0.100000,-0.100000)"
fill="#000000" stroke="none">
<path d="M0 2500 l0 -2500 2500 0 2500 0 0 2500 0 2500 -2500 0 -2500 0 0
-2500z m2710 1807 l0 -174 88 -13 c48 -7 96 -16 107 -20 22 -8 30 7 105 195
24 61 45 112 47 114 3 4 68 -19 138 -49 22 -9 65 -27 95 -40 30 -13 73 -31 95
-40 22 -10 48 -20 57 -23 18 -6 14 -20 -32 -122 -18 -39 -80 -198 -80 -204 0
-4 15 -15 33 -25 17 -10 56 -37 86 -59 l53 -39 124 123 124 124 152 -153 153
-152 -124 -124 -124 -124 30 -39 c17 -21 45 -62 63 -91 22 -36 36 -50 44 -43
6 5 43 21 81 36 39 15 84 33 100 40 131 57 126 55 132 37 3 -9 11 -30 18 -47
7 -16 25 -59 40 -95 15 -36 35 -83 45 -105 29 -68 53 -135 49 -138 -2 -2 -53
-23 -114 -47 -188 -75 -203 -83 -195 -105 4 -11 13 -59 20 -107 l13 -88 174 0
173 0 0 -210 0 -210 -172 -2 -172 -3 -13 -70 c-7 -38 -17 -87 -21 -107 -7 -30
-6 -37 7 -41 9 -3 69 -28 133 -55 64 -27 128 -52 142 -56 14 -3 26 -11 26 -16
0 -9 -26 -79 -54 -145 -7 -16 -23 -55 -36 -85 -13 -30 -31 -73 -40 -95 -10
-22 -20 -48 -23 -57 -6 -18 -13 -16 -134 38 -18 8 -63 26 -100 40 -38 14 -73
30 -79 35 -8 7 -22 -6 -44 -43 -18 -29 -46 -70 -63 -91 l-30 -39 124 -124 124
-124 -153 -152 -152 -153 -124 124 -124 123 -53 -39 c-30 -22 -69 -49 -86 -59
-18 -10 -33 -21 -33 -24 0 -7 63 -168 84 -215 47 -104 47 -105 28 -112 -9 -3
-35 -13 -57 -23 -22 -9 -65 -27 -95 -40 -30 -13 -73 -31 -95 -40 -70 -30 -135
-53 -138 -49 -2 2 -23 54 -47 114 -75 188 -83 203 -105 195 -11 -4 -59 -13
-107 -20 l-88 -13 0 -174 0 -173 -210 0 -210 0 0 173 0 173 -77 13 c-43 6 -91
15 -108 19 -34 9 -35 8 -115 -193 -24 -60 -45 -112 -47 -114 -3 -4 -70 20
-138 49 -22 10 -69 30 -105 45 -36 15 -78 33 -95 40 -16 7 -38 15 -47 18 -18
6 -14 20 32 122 18 39 80 198 80 204 0 4 -15 15 -32 25 -18 10 -57 37 -87 59
l-53 39 -124 -123 -124 -124 -152 153 -153 152 124 124 123 124 -39 53 c-22
30 -49 69 -59 87 -10 17 -21 32 -25 32 -7 0 -166 -63 -214 -84 -102 -46 -105
-47 -111 -28 -4 9 -12 31 -19 47 -7 17 -25 59 -40 95 -15 36 -35 83 -45 105
-29 68 -53 135 -49 138 2 2 54 23 114 47 188 75 203 83 195 105 -4 11 -13 59
-20 108 l-13 87 -174 0 -173 0 0 210 0 210 173 0 174 0 13 88 c7 48 16 96 20
107 8 22 -7 30 -195 105 -60 24 -112 45 -114 47 -4 3 20 70 49 138 10 22 30
69 45 105 15 36 33 79 40 95 7 17 15 38 19 47 6 19 9 18 111 -28 48 -21 207
-84 214 -84 4 0 15 15 25 33 10 17 37 56 59 86 l39 53 -123 124 -124 124 153
152 152 153 124 -124 124 -124 39 30 c21 17 62 45 91 63 36 22 50 36 43 44 -5
6 -21 43 -36 81 -15 39 -33 84 -40 100 -57 131 -55 126 -37 132 9 3 31 11 47
18 17 7 59 25 95 40 36 15 79 33 95 40 61 27 136 55 145 55 5 0 13 -12 16 -26
4 -14 29 -78 56 -142 27 -64 52 -124 55 -133 4 -13 11 -15 36 -8 18 4 67 14
110 21 l77 12 0 173 0 173 210 0 210 0 0 -173z"/>
<path d="M2415 3151 c-165 -33 -268 -86 -374 -192 -124 -123 -195 -290 -195
-459 0 -237 145 -474 355 -577 113 -56 195 -77 299 -77 353 0 653 300 653 654
0 342 -278 634 -624 654 -41 3 -92 1 -114 -3z"/>
</g>
</svg>
